<svg data-name="Layer 1" xmlns="http://www.w3.org/2000/svg" viewBox="0 0 253.88 253.99"><path d="M31.06 96.63h191.77A12.28 12.28 0 0 0 230 74.37L134.09 5.89a12.27 12.27 0 0 0-14.27 0L23.94 74.38a12.28 12.28 0 0 0 7.12 22.25zM126.94 31l57.59 41.11H69.36zm119.92 203.86h-11.2v-11.19a7 7 0 0 0-7-7H214.3V126a13.68 13.68 0 1 0-27.36 0v90.64h-120V126a13.68 13.68 0 0 0-27.36 0v90.64H25.23a7 7 0 0 0-7 7v11.19H7a7 7 0 0 0-7 7V254h253.88v-12.12a7 7 0 0 0-7.02-7.02z"/><path d="M149.22 136.6a22.28 22.28 0 1 0-35.32 18L102 193.47h49.9L140 154.64a22.2 22.2 0 0 0 9.22-18.04z"/></svg>