<svg id="Layer_1" xmlns="http://www.w3.org/2000/svg" viewBox="0 0 16 16"><style>.st0{fill:#fff}</style><path class="st0" d="M1.9 6h12.2c.3 0 .6-.2.7-.5.1-.3 0-.7-.3-.9L8.5.2c-.3-.2-.7-.2-1 0L1.4 4.6c-.2.1-.3.4-.3.6 0 .2.1.4.2.6.2.1.4.2.6.2zM8 1.8l3.7 2.6H4.3L8 1.8zM15.5 14.7h-.7V14c0-.2-.2-.4-.4-.4h-.7V7.9c0-.5-.4-.9-.9-.9s-.9.4-.9.9v5.6H4.2V7.9c0-.5-.4-.9-.9-.9s-.9.4-.9.9v5.6h-.7c-.2 0-.4.2-.4.4v.7H.5c-.2 0-.4.2-.4.4v.8h15.8V15c0-.1-.2-.3-.4-.3z"/><path class="st0" d="M9.4 8.6c0-.8-.6-1.4-1.4-1.4s-1.4.6-1.4 1.4c0 .5.2.9.6 1.2l-.8 2.5h3.2l-.8-2.6c.4-.3.6-.7.6-1.1z"/></svg>