<?xml version="1.0" encoding="utf-8"?>
<svg version="1.1" id="Layer_1" xmlns="http://www.w3.org/2000/svg" xmlns:xlink="http://www.w3.org/1999/xlink" x="0px" y="0px"
	 viewBox="0 0 253.88 253.99" style="enable-background:new 0 0 253.88 253.99;" xml:space="preserve">
<style type="text/css">
	.st0{fill:#FFFFFF;}
</style>
<g>
	<path class="st0" d="M37.58,97.76h178.73c5.7,0,10.68-3.56,12.46-8.9c1.42-5.34-0.36-11.04-4.99-14.24l-89.37-64.09
		c-4.63-3.2-10.68-3.2-14.95,0L30.11,74.61c-3.2,2.49-5.34,6.05-5.34,10.33C24.77,92.06,30.46,97.76,37.58,97.76z M126.95,36.87
		l49.49,35.25H77.46L126.95,36.87z"/>
	<polygon class="st0" points="109.45,185.4 109.85,127.82 80.25,113.55 80.25,199.67 	"/>
	<polygon class="st0" points="174.19,199.26 174.19,114.37 144.99,128.64 144.99,186.21 	"/>
	<path class="st0" d="M242.07,226.42c-0.01,0-0.03,0-0.04,0h-10.75v-10.74c0-3.71-3.01-6.72-6.72-6.72l-10.1,0v-86.21
		c0-8.2-6.71-14.9-14.9-14.9c-8.2,0-14.9,6.71-14.9,14.9v86.21l-115.42-0.02v-86.19c0-8.2-6.71-14.9-14.9-14.9
		c-8.2,0-14.9,6.71-14.9,14.9v86.18l-10.08,0c-3.71,0-6.72,3.01-6.72,6.72v10.74H11.86c-3.71,0-6.72,3.01-6.72,6.72v11.68h243.62
		v-11.63C248.77,229.45,245.78,226.43,242.07,226.42z"/>
</g>
</svg>
