<svg id="Logo" xmlns="http://www.w3.org/2000/svg" viewBox="0 0 1428.8 496.32"><title>SAO-Logo-FINALS</title><path d="M564.84,243.08c-11.89,0-25.22-6.15-35.5-15.1L510.58,250.4a79.61,79.61,0,0,0,53.53,20.89c34.44,0,54.45-20.79,54.45-44.79,0-20.43-11-32.18-28.67-39.31l-18.41-7.46c-12.62-5-22.07-8.25-22.07-17.11,0-8.27,7.17-13,18.43-13,11.43,0,20.48,4,30,11.32l16.49-20.59a66.79,66.79,0,0,0-46.49-18.94c-30.08,0-51.47,19.13-51.47,43.07,0,21,14.19,33.31,29.17,39.4l18.78,8c12.62,5.2,20.84,8.12,20.84,17.21C585.16,237.71,578.48,243.08,564.84,243.08Z"/><path d="M730.4,208.76c0-30-15.52-52.8-46.85-52.8-26.43,0-51.89,22-51.89,57.7,0,36.42,24.29,57.63,55.65,57.63a71.58,71.58,0,0,0,39-12.39l-10.77-19.65c-8,4.67-15.47,7.2-23.79,7.2-14.68,0-25.61-7.33-28.53-23.28h65.81A74.42,74.42,0,0,0,730.4,208.76Zm-67.53-7.15c2.22-13.9,11.11-20.8,21.41-20.8,13,0,18.28,8.7,18.28,20.8Z"/><path d="M741.86,238.12c0,18.53,12.73,33.17,32.79,33.17,12.36,0,22.74-5.79,32-13.93h.81l2.35,11.27H836.4V205.74C836.4,172,820.83,156,792.7,156c-17.29,0-33,5.95-47,14.48l11.58,21.4c10.68-6.05,19.88-9.94,29.11-9.94,12,0,16.75,6.28,17.4,15.9C760.3,202.39,741.86,214.94,741.86,238.12Zm61.95-20.67v19.22c-5.79,5.76-10.74,9.41-18.12,9.41-7.75,0-12.62-3.47-12.62-10.56C773.07,227.21,780.63,220.58,803.81,217.45Z"/><path d="M955.5,268.63V194.42c6.94-7.25,13.2-10.69,18.72-10.69,9.26,0,13.59,5,13.59,20.78v64.12h32.59V200.34c0-27.5-10.64-44.38-34.41-44.38-14.53,0-24.86,8.43-34.53,18.52C945.9,162.64,936.56,156,921.09,156c-14.45,0-24.31,7.7-33.34,16.77h-.81l-2.34-14.11H858v110h32.6V194.42c6.93-7.25,13.27-10.69,18.72-10.69,9.26,0,13.59,5,13.59,20.78v64.12Z"/><path d="M1068.94,271.29c7.42,0,12.77-1.17,16.37-2.71l-3.89-24a14,14,0,0,1-4,.45c-2.66,0-5.9-2.22-5.9-9.21V113.29h-32.59V234.45C1038.94,256.7,1046.58,271.29,1068.94,271.29Z"/><path d="M1179.63,239.25c-8,4.67-15.46,7.2-23.78,7.2-14.68,0-25.61-7.33-28.54-23.28h65.81a73.47,73.47,0,0,0,1.36-14.41c0-30-15.52-52.8-46.85-52.8-26.43,0-51.89,22-51.89,57.7,0,36.42,24.29,57.63,55.64,57.63a71.59,71.59,0,0,0,39-12.39Zm-31.27-58.44c13,0,18.28,8.7,18.28,20.8H1127C1129.17,187.71,1138.06,180.81,1148.36,180.81Z"/><path d="M1247.86,247.18c-9.2,0-18.41-4-28.38-11.56l-14.66,20.31c11.14,9.07,27.73,15.36,42.23,15.36,29.48,0,45.19-15.57,45.19-35.48,0-20.11-15.7-27.95-29.63-33.1-11.4-4.15-21.7-6.84-21.7-13.85,0-5.49,4.14-8.79,12.56-8.79,7.62,0,15.34,3.71,23.17,9.4l14.58-19.58c-9.36-7.12-21.91-13.93-38.77-13.93-25.38,0-42,14-42,34.44,0,18.18,15.62,27.13,29.1,32.35,11.33,4.43,22.23,7.72,22.23,15C1261.76,243.48,1257.56,247.18,1247.86,247.18Z"/><path d="M1344.76,247.18c-9.21,0-18.42-4-28.38-11.56l-14.67,20.31c11.14,9.07,27.73,15.36,42.24,15.36,29.48,0,45.18-15.57,45.18-35.48,0-20.11-15.7-27.95-29.63-33.1-11.4-4.15-21.7-6.84-21.7-13.85,0-5.49,4.15-8.79,12.57-8.79,7.61,0,15.33,3.71,23.16,9.4l14.59-19.58c-9.37-7.12-21.92-13.93-38.77-13.93-25.38,0-42,14-42,34.44,0,18.18,15.62,27.13,29.11,32.35,11.32,4.43,22.22,7.72,22.22,15C1358.65,243.48,1354.46,247.18,1344.76,247.18Z"/><path d="M546.81,300.54,501.42,445.05h33.41l8.93-34.42h44.06l8.89,34.42h34.58L585.9,300.54Zm3.53,84.7,3.47-13.38c4-14.45,7.88-31.35,11.37-46.61h.89c3.86,15.08,7.72,32.16,11.74,46.61l3.45,13.38Z"/><path d="M692.37,421.41c-14.16,0-24.65-12.28-24.65-31.32s10.07-31.4,25.74-31.4c5.24,0,9.65,2,14.92,6.49l15.39-20.95a47.79,47.79,0,0,0-32.13-11.84c-30.4,0-57.32,21.13-57.32,57.7s23.69,57.63,54.39,57.63c11.92,0,25.57-3.66,36.26-13.1L712.21,413.3C706.5,417.84,699.59,421.41,692.37,421.41Z"/><path d="M787.27,421.41c-14.16,0-24.65-12.28-24.65-31.32s10.07-31.4,25.74-31.4c5.24,0,9.65,2,14.92,6.49l15.39-20.95a47.79,47.79,0,0,0-32.13-11.84c-30.4,0-57.32,21.13-57.32,57.7s23.69,57.63,54.39,57.63c11.92,0,25.57-3.66,36.26-13.1L807.11,413.3C801.4,417.84,794.49,421.41,787.27,421.41Z"/><path d="M876,332.39c-26.43,0-51.89,22-51.89,57.7,0,36.42,24.29,57.63,55.64,57.63a71.6,71.6,0,0,0,39-12.4L908,415.67c-8,4.67-15.46,7.2-23.78,7.2-14.68,0-25.61-7.32-28.53-23.28h65.81a74.21,74.21,0,0,0,1.35-14.4C922.86,355.16,907.34,332.39,876,332.39ZM855.33,378c2.22-13.89,11.11-20.8,21.41-20.8,13,0,18.28,8.71,18.28,20.8Z"/><path d="M992.1,379.13c-11.4-4.15-21.7-6.83-21.7-13.85,0-5.49,4.14-8.78,12.56-8.78,7.62,0,15.34,3.7,23.17,9.39l14.58-19.57c-9.36-7.12-21.91-13.93-38.77-13.93-25.38,0-42,13.95-42,34.43,0,18.19,15.63,27.13,29.11,32.35,11.32,4.44,22.23,7.72,22.23,15,0,5.76-4.2,9.46-13.9,9.46-9.2,0-18.41-4-28.38-11.55l-14.66,20.3c11.14,9.08,27.73,15.37,42.23,15.37,29.48,0,45.19-15.58,45.19-35.49C1021.73,392.12,1006,384.28,992.1,379.13Z"/><path d="M1089,379.13c-11.4-4.15-21.7-6.83-21.7-13.85,0-5.49,4.15-8.78,12.57-8.78,7.61,0,15.33,3.7,23.16,9.39l14.59-19.57c-9.37-7.12-21.92-13.93-38.77-13.93-25.38,0-42,13.95-42,34.43,0,18.19,15.62,27.13,29.11,32.35,11.32,4.44,22.22,7.72,22.22,15,0,5.76-4.19,9.46-13.89,9.46-9.21,0-18.42-4-28.38-11.55l-14.67,20.3c11.14,9.08,27.73,15.37,42.24,15.37,29.48,0,45.18-15.58,45.18-35.49C1118.62,392.12,1102.92,384.28,1089,379.13Z"/><path d="M1141.13,427.54c-4.88,0-9.4,3.81-9.4,10.29a9.41,9.41,0,1,0,18.8,0C1150.53,431.35,1146,427.54,1141.13,427.54Z"/><path d="M1211.82,335.92c-25.59,0-47.81,20.49-47.81,56.1,0,35.21,22.22,55.7,47.81,55.7s47.8-20.49,47.8-55.7C1259.62,356.41,1237.41,335.92,1211.82,335.92Zm0,103.15c-21.51,0-37.52-19-37.52-47.05s16-47.46,37.52-47.46S1249.34,364,1249.34,392,1233.33,439.07,1211.82,439.07Z"/><path d="M1289,358.45h-.49l-1.06-19.87h-8.29V445.05h9.8V372.64c8.11-20.14,19.46-27.41,29-27.41a24,24,0,0,1,9.63,1.77l2.21-8.87a22.32,22.32,0,0,0-10.55-2.21C1306.65,335.92,1296.23,345.36,1289,358.45Z"/><path d="M1393.7,435.92h-22.82c-15.88,0-20.31-6.17-20.31-13.84,0-7.09,4-11.62,8.65-15.41a36.28,36.28,0,0,0,17.6,4.55c20.85,0,37.21-15.83,37.21-37.61,0-11.22-4.88-20.84-11.75-26.69H1427v-8.34h-36a37.94,37.94,0,0,0-14.15-2.66c-20.8,0-37.47,15.65-37.47,37.56a39.11,39.11,0,0,0,13.48,29.18v.89c-4.74,3.32-11.62,10.11-11.62,19.64a19.15,19.15,0,0,0,9.4,17.07v.89c-9.8,6.92-15.92,16.39-15.92,25.68,0,18,16.9,29.49,43.77,29.49,30.69,0,50.34-17.61,50.34-36C1428.8,443.55,1417.62,435.92,1393.7,435.92Zm-44.42-62.44c0-18.18,12.46-29.45,27.54-29.45s27.54,11.47,27.54,29.45c0,17.83-12.86,29.89-27.54,29.89S1349.28,391.31,1349.28,373.48Zm30.2,114.9c-22.44,0-35.3-9.09-35.3-22.57,0-7.5,4.13-15.7,14-22.35a68.69,68.69,0,0,0,13.17,1.73h22.82c16.12,0,24.64,4.48,24.64,16.23C1418.78,474.81,1403.48,488.38,1379.48,488.38Z"/><path d="M61.79,170.72H402.22A24.83,24.83,0,0,0,426,153.77c2.71-10.17-.68-21-9.5-27.13L246.22,4.57c-8.82-6.09-20.34-6.09-28.47,0L47.56,126.63c-6.09,4.74-10.17,11.52-10.17,19.67A24.31,24.31,0,0,0,61.79,170.72ZM232,54.74l94.27,67.14H137.75Z"/><polygon points="202.68 331.65 203.44 227.98 143.06 200.8 143.06 358.83 202.68 331.65"/><polygon points="261.35 331.65 260.58 227.98 320.96 200.8 320.96 358.83 261.35 331.65"/><path d="M451.29,409.78H430.73V389.32a12.81,12.81,0,0,0-12.8-12.8H398.7V218.32a28.38,28.38,0,0,0-56.76,0v158.2l-219.85,0V218.32a28.38,28.38,0,0,0-56.76,0V376.47H46.13a12.81,12.81,0,0,0-12.8,12.8v20.45H12.8A12.81,12.81,0,0,0,0,422.52v22.25H464V422.62A12.79,12.79,0,0,0,451.29,409.78Z"/></svg>